<svg xmlns="http://www.w3.org/2000/svg" viewBox="0 0 400 400">
  <defs>
    <linearGradient id="bg" x1="0%" y1="100%" x2="100%" y2="0%">
      <stop offset="0%" style="stop-color:#0078d4"/>
      <stop offset="100%" style="stop-color:#50e6ff"/>
    </linearGradient>
  </defs>
  <rect width="400" height="400" fill="url(#bg)"/>
  <!-- Windows logo -->
  <rect x="108" y="118" width="80" height="80" rx="4" fill="white" opacity="0.95"/>
  <rect x="212" y="118" width="80" height="80" rx="4" fill="white" opacity="0.95"/>
  <rect x="108" y="202" width="80" height="80" rx="4" fill="white" opacity="0.95"/>
  <rect x="212" y="202" width="80" height="80" rx="4" fill="white" opacity="0.95"/>
  <!-- Window pane colors -->
  <rect x="112" y="122" width="72" height="72" rx="2" fill="#f25022"/>
  <rect x="216" y="122" width="72" height="72" rx="2" fill="#7fba00"/>
  <rect x="112" y="206" width="72" height="72" rx="2" fill="#00a4ef"/>
  <rect x="216" y="206" width="72" height="72" rx="2" fill="#ffb900"/>
  <!-- Text -->
  <text x="200" y="318" font-family="'Segoe UI',Arial,sans-serif" font-size="22" font-weight="300" fill="white" text-anchor="middle">Windows 11</text>
  <rect x="136" y="326" width="128" height="26" rx="4" fill="rgba(255,255,255,0.2)"/>
  <text x="200" y="344" font-family="'Segoe UI',Arial,sans-serif" font-size="14" font-weight="600" fill="white" text-anchor="middle">Pro</text>
  <!-- Bottom info -->
  <rect x="0" y="360" width="400" height="40" fill="rgba(0,0,0,0.3)"/>
  <text x="200" y="378" font-family="Arial,sans-serif" font-size="11" fill="rgba(255,255,255,0.9)" text-anchor="middle">Bản quyền vĩnh viễn · Active Directory · BitLocker</text>
  <text x="200" y="394" font-family="Arial,sans-serif" font-size="10" fill="rgba(255,255,255,0.7)" text-anchor="middle">Microsoft · Bảo hành vĩnh viễn</text>
</svg>
